<svg width="59" height="56" viewBox="0 0 59 56" fill="none" xmlns="http://www.w3.org/2000/svg">
<g filter="url(#filter0_d_12_399)">
<path d="M5.09153 8.21365C5.14983 3.79576 8.77879 0.201271 13.197 0.18515L46.5287 0.0635333C50.947 0.0474125 54.4814 3.61575 54.4231 8.03365L54.0119 39.1964C53.9536 43.6143 50.3246 47.2088 45.9064 47.2249L12.5747 47.3465C8.15643 47.3626 4.62199 43.7943 4.68029 39.3764L5.09153 8.21365Z" fill="#E9E9E9"/>
<path d="M13.1871 0.935084L46.5188 0.813468C50.5229 0.798858 53.726 4.03267 53.6731 8.03638L53.2619 39.1991C53.2091 43.2028 49.9203 46.4603 45.9163 46.4749L12.5846 46.5966C8.58054 46.6112 5.37745 43.3774 5.43029 39.3736L5.84152 8.21091C5.89436 4.2072 9.1831 0.949694 13.1871 0.935084Z" stroke="black" stroke-width="1.5"/>
</g>
<g filter="url(#filter1_d_12_399)">
<path d="M28.2081 24.3158C28.5072 23.7229 28.8863 23.2064 29.3452 22.7662C29.8422 22.2861 30.3202 21.8259 30.7791 21.3857C31.238 20.9455 31.6569 20.4672 32.036 19.9506C32.2996 19.5149 32.4452 19.0427 32.4727 18.5341C32.5003 18.0256 32.4107 17.5196 32.2039 17.0164C31.9972 16.5131 31.6364 16.111 31.1216 15.8101C30.6459 15.5083 29.998 15.3667 29.1779 15.3853C28.475 15.4012 27.8732 15.5711 27.3726 15.8951C26.9102 16.1791 26.5476 16.5585 26.2848 17.0333C26.0212 17.4691 25.8166 17.923 25.671 18.3952L22.4173 17.0623C22.6712 16.197 23.1022 15.3862 23.7102 14.6301C24.3173 13.8348 25.0651 13.2123 25.9536 12.7623C26.8802 12.2725 27.9294 12.0143 29.1009 11.9877C30.5459 11.955 31.7827 12.22 32.8113 12.7828C33.8399 13.3456 34.6174 14.0313 35.1436 14.8399C35.4285 15.3413 35.657 15.9418 35.8292 16.6412C36.0404 17.3397 36.1157 18.0804 36.0553 18.8632C35.994 19.607 35.7366 20.3161 35.283 20.9906C34.8312 21.7432 34.3763 22.3592 33.9183 22.8384C33.4594 23.2786 33.0391 23.6984 32.6574 24.0978C32.2749 24.4581 31.9526 24.8952 31.6908 25.4091C31.5772 25.5679 31.4835 25.7459 31.4098 25.9429C31.3752 26.1391 31.3423 26.4133 31.3113 26.7657C31.3192 27.1171 31.3298 27.5858 31.3431 28.1716L27.7112 28.2539C27.7006 27.7852 27.6873 27.1994 27.6714 26.4965C27.6546 25.7545 27.8335 25.0276 28.2081 24.3158ZM32.1016 33.1947C32.1167 33.8586 31.8761 34.4502 31.3799 34.9693C30.9219 35.4486 30.3414 35.6962 29.6385 35.7121C28.9355 35.728 28.3249 35.5074 27.8066 35.0503C27.3265 34.5532 27.0789 33.9728 27.0639 33.3089C27.0479 32.6059 27.269 32.0148 27.727 31.5356C28.2232 31.0164 28.8227 30.7488 29.5257 30.7329C30.2286 30.717 30.8202 30.9576 31.3003 31.4546C31.8186 31.9117 32.0857 32.4918 32.1016 33.1947Z" fill="black"/>
</g>
<defs>
<filter id="filter0_d_12_399" x="0.679565" y="0.0634766" width="57.7443" height="55.2831" filterUnits="userSpaceOnUse" color-interpolation-filters="sRGB">
<feFlood flood-opacity="0" result="BackgroundImageFix"/>
<feColorMatrix in="SourceAlpha" type="matrix" values="0 0 0 0 0 0 0 0 0 0 0 0 0 0 0 0 0 0 127 0" result="hardAlpha"/>
<feOffset dy="4"/>
<feGaussianBlur stdDeviation="2"/>
<feComposite in2="hardAlpha" operator="out"/>
<feColorMatrix type="matrix" values="0 0 0 0 0 0 0 0 0 0 0 0 0 0 0 0 0 0 0.25 0"/>
<feBlend mode="normal" in2="BackgroundImageFix" result="effect1_dropShadow_12_399"/>
<feBlend mode="normal" in="SourceGraphic" in2="effect1_dropShadow_12_399" result="shape"/>
</filter>
<filter id="filter1_d_12_399" x="18.3058" y="11.8311" width="22.245" height="32.035" filterUnits="userSpaceOnUse" color-interpolation-filters="sRGB">
<feFlood flood-opacity="0" result="BackgroundImageFix"/>
<feColorMatrix in="SourceAlpha" type="matrix" values="0 0 0 0 0 0 0 0 0 0 0 0 0 0 0 0 0 0 127 0" result="hardAlpha"/>
<feOffset dy="4"/>
<feGaussianBlur stdDeviation="2"/>
<feComposite in2="hardAlpha" operator="out"/>
<feColorMatrix type="matrix" values="0 0 0 0 0 0 0 0 0 0 0 0 0 0 0 0 0 0 0.25 0"/>
<feBlend mode="normal" in2="BackgroundImageFix" result="effect1_dropShadow_12_399"/>
<feBlend mode="normal" in="SourceGraphic" in2="effect1_dropShadow_12_399" result="shape"/>
</filter>
</defs>
</svg>
